<svg xmlns="http://www.w3.org/2000/svg" xmlns:xlink="http://www.w3.org/1999/xlink" version="1.1" x="0px" y="0px" viewBox="0 0 1920 1080" style="enable-background:new 0 0 1920 1080;" xml:space="preserve">
<style xmlns="http://www.w3.org/2000/svg" type="text/css">
	.st0{opacity:0.1;fill:#2A94F4;}
	.st1{fill:#0B4870;}
	.st2{fill:#FCD2B1;}
	.st3{fill:#CCE9FF;}
	.st4{fill:#FFBE55;}
	.st5{opacity:9.000000e-02;}
	.st6{clip-path:url(#SVGID_2_);}
</style>
<g xmlns="http://www.w3.org/2000/svg" id="Backgorund">
	<path class="st0" d="M1148.8,977.4H335.5c-31,0-56.1-25.1-56.1-56.1v0c0-31,25.1-56.1,56.1-56.1h414c44.1,0,79.9-35.8,79.9-79.9v0   c0-44.1-35.8-79.9-79.9-79.9H544.7c-45.1,0-81.6-36.5-81.6-81.6v0c0-45.1,36.5-81.6,81.6-81.6h21.6c39,0,70.7-31.6,70.7-70.7v0   c0-39-31.6-70.7-70.7-70.7H340.7c-33.8,0-61.3-27.4-61.3-61.3v0c0-33.8,27.4-61.3,61.3-61.3h94.1c29.2,0,52.9-23.7,52.9-52.9v0   c0-29.2-23.7-52.9-52.9-52.9h-19c-35,0-63.4-28.4-63.4-63.4v0c0-35,28.4-63.4,63.4-63.4h733.1c257.3,0,465.9,208.6,465.9,465.9v0   C1614.7,768.8,1406.1,977.4,1148.8,977.4z"/>
</g>
<g xmlns="http://www.w3.org/2000/svg" id="Object">
	<ellipse class="st0" cx="1204" cy="1018.6" rx="129.1" ry="40.4"/>
	<ellipse class="st0" cx="1441.4" cy="1035.9" rx="73.7" ry="23.1"/>
	<g>
		<path class="st1" d="M1154.7,88.6c0,0,22.8-51.1-17.7-63.4s-46.2-13.3-64.3-11.4c-24.2,2.4-35.7,36.8-38.7,53.5    c-2.8,15.3,1,26.2,13,47.1s16.9,15.6,22.2,16.5C1074.4,131.7,1154.7,88.6,1154.7,88.6z"/>
		<path class="st2" d="M1015.1,554.6c0,0,65.7,157.3,70.4,180.8c4.7,23.5,84.5,192.5,84.5,192.5l-28.2,18.8    c0,0-103.5-139.5-112.7-180.8c-4.7-21.1-82.2-124.4-82.2-124.4L1015.1,554.6z"/>
		<polygon class="st3" points="1146.2,876.6 1184.5,941.7 1151,960.6 1106.9,897.8   "/>
		<path class="st2" d="M706.4,615.6l69.3,35.2c0,0-33.1,63.4-65.8,75.1c-32.8,11.7-218.2-63.4-218.2-63.4l5.3-36.1    c0,0,144.1,27.8,185.4,43.6L706.4,615.6z"/>
		<path class="st4" d="M987.2,470.1c0,0,44.5,101,76.4,157.3c0,0-59.7,65.2-94.9,79.2c0,0-108.6-108.6-106.2-152    c0,0-61.6,118.6-86.8,136.2c0,0-78.1-38.7-97.4-51.1c0,0,56.3-264.6,144.4-296.9C822.6,342.8,996.8,395.5,987.2,470.1z"/>
		<path class="st2" d="M954.1,179.9c0,0-85.7-23.2-130.3-25.6c0,0-66.9,102.1-81,116.2c0,0-8.2,23.5-8.2,41.1    c0,17.6-16.4,27-25.8,24.7c-9.4-2.3-18.8-14.1-17.6-28.2c1.2-14.1,18.8-22.3,25.8-35.2c7-12.9,55.1-158.5,96.2-163.2    c41.1-4.7,183.2,35.2,183.2,35.2L954.1,179.9z"/>
		<path class="st2" d="M1096.7,261c0,0,91,95.2,119.2,109.3s159.7,49.3,159.7,49.3s22.3,15.3,29.3,27c7,11.7,20,7,20,7    c4.7-8.2-11.7-10.6-15.3-18.8c-3.5-8.2,42.3,10.6,57.5,24.7c0,0,17.6-8.2,10.6-20c-7-11.7-18.8-25.8-36.4-29.3    c-17.6-3.5-29.3-3.5-42.3-9.4c-12.9-5.9-140.3-58-159.1-73.1c-29.9-24.3-101.6-99.4-101.6-99.4L1096.7,261z"/>
		<path class="st2" d="M969.4,208c4.4-1.8,22.5-59.3,22.5-59.3s48,15.3,63.8-34c0,0-5.3-0.1-7-12.3c-3.5-24.6,16.2-20.2,19-13.1    c-0.8-4.4-1.7-16.9,8.9-29c7.8-8.8,28.7-26.6,74.8-2.9c0,0,12.6,60.7-11.2,85.4c-12.1,12.5-27.5,13.4-39.8,11.3    c-4.2,5.9-8.7,13.2-10.4,19.5l30.8,34.3l-51.1,61.6c0,0-87.2,7.9-89.8,0C977.3,261.7,965,209.8,969.4,208z"/>
		<path class="st4" d="M1120.8,208l22.2,25c0,0-41.9,48.6-67.1,110.9c-25.2,62.2-88.7,126.2-88.7,126.2s-35-20.8-143.5-78.8    c-26.9-14.4-70.9-3.8-70.9-3.8s70.9-102.9,171.9-206.8l40.7-38.8l25,7.7c0,0,7,63.3,21.1,78.6S1120.8,208,1120.8,208z"/>
		<path class="st4" d="M1189.9,931.1c8.7,4,16.5,4.6,22.6,0.9l3.3-2c20.6-9.8,44.9-6.6,62.4,8l0,0l-108.3,65.8l-22.9-44.8    L1189.9,931.1z"/>
		<g>
			<polygon class="st3" points="525.6,675.8 454.1,651.2 466.4,616.1 541.2,635.4    "/>
			<path class="st4" d="M456.8,662.2c-9.4,1.6-16.2,5.6-19.1,12l-1.6,3.5c-11.4,19.7-33.3,30.9-56,28.7h0l52.1-115.5l44.2,24     L456.8,662.2z"/>
		</g>
		<path class="st1" d="M1067.7,91.2c0,0,25.4-21.1,21-42.9c0,0,87.2,23.8,64.3,9.2s-45.4-37.1-71.5-18.3    C1045.3,65.3,1067.7,91.2,1067.7,91.2z"/>
		<path class="st5" d="M1120.8,208l22.2,25c0,0-41.9,48.6-67.1,110.9c-25.2,62.2-88.7,126.2-88.7,126.2s-35-20.8-143.5-78.8    c-26.9-14.4-70.9-3.8-70.9-3.8s70.9-102.9,171.9-206.8l40.7-38.8l25,7.7c0,0,7,63.3,21.1,78.6S1120.8,208,1120.8,208z"/>
	</g>
	<g>
		<circle class="st4" cx="1444.9" cy="648" r="95"/>
		<g>
			<defs>
				<circle id="SVGID_1_" cx="1444.9" cy="648" r="95"/>
			</defs>
			<clipPath id="SVGID_2_">
				<use xmlns:xlink="http://www.w3.org/1999/xlink" xlink:href="#SVGID_1_" style="overflow:visible;"/>
			</clipPath>
			<g class="st6">
				<path class="st1" d="M1414.2,744.8c0.5-0.4,50.4-41.8,25.7-85.8c-26.6-47.3-96.1-24.5-96.8-24.2l1.9,5.5      c0.7-0.2,65.7-21.5,89.9,21.6c22.4,39.8-23.8,78-24.3,78.4L1414.2,744.8z"/>
			</g>
			<g class="st6">
				<path class="st1" d="M1529.8,629.5c1.8,0,3.6,0,5.5-0.1l-0.3-5.8c-21.3,1-36.8-4.2-46.2-15.4c-16.2-19.5-9-51.1-8.9-51.5      l-5.7-1.3c-0.3,1.4-8,34.7,10.1,56.5C1494,623.6,1509.3,629.5,1529.8,629.5z"/>
			</g>
			<g class="st6">
				<path class="st1" d="M1359.3,694c127.2-23.5,163.4-109.6,163.8-110.5l-5.4-2.2c-0.3,0.8-35.6,84-159.4,107L1359.3,694z"/>
			</g>
			<g class="st6">
				<path class="st1" d="M1502.3,722.1l5.8-0.2c-4.2-101.9-111.6-160.5-112.7-161.1l-2.7,5.1      C1393.7,566.4,1498.2,623.6,1502.3,722.1z"/>
			</g>
		</g>
	</g>
</g>
</svg>